<?xml version="1.0" encoding="UTF-8"?>
<svg width="170px" height="147px" viewBox="0 0 170 147" version="1.1" xmlns="http://www.w3.org/2000/svg" xmlns:xlink="http://www.w3.org/1999/xlink">
    <!-- Generator: Sketch 57.1 (83088) - https://sketch.com -->
    <title>yukmarket-logo1</title>
    <desc>Created with Sketch.</desc>
    <g id="No-Login" stroke="none" stroke-width="1" fill="none" fill-rule="evenodd">
        <g id="1.0.-YukMarket---no-login----Splash" transform="translate(-99.000000, -306.000000)">
            <g id="yukmarket-logo3" transform="translate(99.000000, 306.000000)">
                <g stroke-width="1" fill-rule="evenodd" transform="translate(0.000000, 8.330000)">
                    <g id="Group" transform="translate(0.000000, 102.064748)" fill-rule="nonzero">
                        <polygon id="Path" fill="#00A00C" points="18.4928009 8.77097856 7.10838074 35.9369646 3.58562363 35.9369646 7.81293217 26.4325943 0.32214442 8.77097856 4.03052516 8.77097856 9.44448578 22.315565 9.51888403 22.315565 14.7847921 8.77097856 18.4928009 8.77097856"></polygon>
                        <path d="M36.6630853,27.6257068 L33.3999781,27.6257068 L33.3999781,25.0094284 L33.2519256,25.0094284 C32.7326258,25.93273 31.9354486,26.7024053 30.8600219,27.3176823 C29.7845952,27.9337313 28.6660175,28.2413698 27.5042888,28.2413698 C25.2794092,28.2413698 23.5671335,27.5813173 22.3682057,26.2596683 C21.1689059,24.9387912 20.569628,23.0597646 20.569628,20.6225882 L20.569628,8.77097856 L23.9811597,8.77097856 L23.9811597,20.3917628 C24.055558,23.4700779 25.5509628,25.0094284 28.4681182,25.0094284 C29.8273742,25.0094284 30.9649234,24.4385409 31.8796499,23.2967659 C32.7940044,22.1557628 33.2515536,20.7897243 33.2515536,19.1986503 L33.2515536,8.77097856 L36.6630853,8.77097856 L36.6630853,27.6257068 L36.6630853,27.6257068 Z" id="Path" fill="#00A00C"></path>
                        <polygon id="Path" fill="#00A00C" points="56.7989716 27.6257068 52.6828884 27.6257068 47.0092779 18.7369996 44.2278993 21.5844893 44.2278993 27.6257068 40.8163676 27.6257068 40.8163676 0.0744971554 44.2278993 0.0744971554 44.2278993 17.0440228 52.0895624 8.77097856 56.4652954 8.77097856 56.4652954 8.92499081 49.3822101 16.2357479 56.7989716 27.4716945"></polygon>
                        <path d="M62.1385339,27.6257068 L58.7266302,27.6257068 L58.7266302,8.77097856 L61.9901094,8.77097856 L61.9901094,11.3876429 L62.1381619,11.3876429 C62.6570897,10.4639554 63.4546389,9.69428009 64.5300656,9.07900306 C65.6054923,8.46372604 66.6742232,8.15531554 67.7377462,8.15531554 C69.0724508,8.15531554 70.2464551,8.47646389 71.2608753,9.11721663 C72.2738074,9.75874136 73.015558,10.6438293 73.4853829,11.7724805 C74.9930635,9.36116586 77.0825383,8.15531554 79.7526915,8.15531554 C81.853698,8.15531554 83.4733479,8.82270197 84.6105252,10.1563168 C85.7477024,11.4907037 86.316477,13.3886442 86.316477,15.8512963 L86.316477,27.6260928 L82.9045733,27.6260928 L82.9045733,16.3901462 C82.9045733,14.6203562 82.5950766,13.3442547 81.9775711,12.5614556 C81.3593217,11.7794284 80.3210941,11.3880289 78.8628884,11.3880289 C77.5523632,11.3880289 76.4523851,11.9650923 75.5622101,13.1196053 C74.672035,14.2737322 74.2275055,15.6339807 74.2275055,17.198035 L74.2275055,27.6260928 L70.8156018,27.6260928 L70.8156018,16.3901462 C70.8156018,14.6203562 70.506105,13.3442547 69.8885996,12.5614556 C69.2703501,11.7794284 68.2321225,11.3880289 66.7739168,11.3880289 C65.4633917,11.3880289 64.3634136,11.9650923 63.4732385,13.1196053 C62.5830635,14.2737322 62.1385339,15.6339807 62.1385339,17.198035 L62.1385339,27.6257068 Z" id="Path" fill="#FF8900"></path>
                        <path d="M97.0339168,8.15531554 C99.5552735,8.15531554 101.545055,8.85473961 103.004376,10.2528158 C104.462582,11.6512779 105.192057,13.5685182 105.192057,16.0053085 L105.192057,27.6257068 L101.92895,27.6257068 L101.92895,25.0094284 L101.780897,25.0094284 C100.371794,27.164056 98.4924945,28.2413698 96.1444858,28.2413698 C94.1416849,28.2413698 92.4666083,27.6257068 91.119628,26.3943807 C89.7719037,25.1634407 89.0982276,23.6240902 89.0982276,21.7771011 C89.0982276,19.8278232 89.8087309,18.2753488 91.2304814,17.1212219 C92.651488,15.967095 94.5493873,15.3896455 96.9226915,15.3896455 C98.9496718,15.3896455 100.618425,15.7744832 101.92895,16.5441584 L101.92895,15.7358836 C101.92895,14.5045575 101.459125,13.4596674 100.519847,12.5996691 C99.5801969,11.7404429 98.4805908,11.3108298 97.2195405,11.3108298 C95.3156893,11.3108298 93.8080088,12.1445803 92.6953829,13.8116954 L89.6919256,11.8492937 C91.3472867,9.38664158 93.7946171,8.15531554 97.0339168,8.15531554 Z M92.6209847,21.8539142 C92.6209847,22.7776018 92.9978118,23.546891 93.7518381,24.162554 C94.5058643,24.7782171 95.3893435,25.0862416 96.4033917,25.0862416 C97.837046,25.0862416 99.1163239,24.5346538 100.241597,23.4314783 C101.365755,22.3290748 101.928578,21.0332875 101.928578,19.5452744 C100.865427,18.6733103 99.3819256,18.2367492 97.4788184,18.2367492 C96.093523,18.2367492 94.9384902,18.5829873 94.011488,19.2754635 C93.0844858,19.9683256 92.6209847,20.8283239 92.6209847,21.8539142 Z" id="Shape" fill="#FF8900"></path>
                        <path d="M112.460022,27.6257068 L109.04849,27.6257068 L109.04849,8.77097856 L112.311597,8.77097856 L112.311597,11.8492937 L112.45965,11.8492937 C112.805602,10.848793 113.516477,9.99612867 114.591904,9.29014267 C115.66733,8.58492867 116.723786,8.23212867 117.762013,8.23212867 C118.750766,8.23212867 119.591466,8.38575492 120.283742,8.69377943 L119.245514,12.1183326 C118.824792,11.9392306 118.157068,11.8492937 117.242713,11.8492937 C115.957112,11.8492937 114.838162,12.3881435 113.88698,13.4654573 C112.934683,14.5431571 112.459278,15.8003449 112.459278,17.2366346 L112.459278,27.6257068 L112.460022,27.6257068 Z" id="Path" fill="#FF8900"></path>
                        <polygon id="Path" fill="#FF8900" points="138.676849 27.6257068 134.560766 27.6257068 128.887155 18.7369996 126.105777 21.5844893 126.105777 27.6257068 122.694245 27.6257068 122.694245 0.0744971554 126.105777 0.0744971554 126.105777 17.0440228 133.96744 8.77097856 138.343545 8.77097856 138.343545 8.92499081 131.26046 16.2357479 138.677221 27.4716945 138.677221 27.6257068"></polygon>
                        <path d="M148.206893,28.2413698 C145.53674,28.2413698 143.336411,27.2925926 141.60628,25.3938801 C139.875777,23.4959396 139.010153,21.0973628 139.010153,18.1981497 C139.010153,15.3255702 139.850481,12.9331694 141.531882,11.021719 C143.21291,9.1110407 145.363764,8.15492954 147.984442,8.15492954 C150.678775,8.15492954 152.823676,9.05931729 154.418403,10.8677068 C156.012757,12.6764823 156.810306,15.2097716 156.810306,18.4671886 L156.773107,18.8520263 L142.496083,18.8520263 C142.545186,20.6986293 143.138884,22.1870284 144.276061,23.3152937 C145.412867,24.4443309 146.772867,25.0086565 148.355317,25.0086565 C150.53035,25.0086565 152.236302,23.8800053 153.472801,21.6223168 L156.513457,23.1616674 C155.698053,24.7523554 154.566827,25.9964193 153.120525,26.8938591 C151.674595,27.7924569 150.036346,28.2413698 148.206893,28.2413698 Z M142.755733,15.9281094 L153.176324,15.9281094 C153.077002,14.6199702 152.564398,13.5364805 151.637396,12.6768683 C150.710394,11.817256 149.467943,11.3876429 147.910416,11.3876429 C146.624442,11.3876429 145.51814,11.7979562 144.591138,12.6189689 C143.664136,13.4399816 143.052582,14.5431571 142.755733,15.9281094 Z" id="Shape" fill="#FF8900"></path>
                        <path d="M166.562801,27.9337313 C165.079672,27.9337313 163.849497,27.4593427 162.87302,26.5101794 C161.896171,25.5614022 161.39547,24.2397532 161.371291,22.5463904 L161.371291,12.0033059 L158.18221,12.0033059 L158.18221,8.77097856 L161.371291,8.77097856 L161.371291,2.999186 L164.782823,2.999186 L164.782823,8.77097856 L169.232954,8.77097856 L169.232954,12.0033059 L164.782823,12.0033059 L164.782823,21.3922635 C164.782823,22.6494512 165.017549,23.5025015 165.487746,23.9510284 C165.957199,24.4003274 166.488775,24.6245908 167.082101,24.6245908 C167.353654,24.6245908 167.619628,24.5925532 167.87965,24.5284779 C168.139672,24.4644026 168.38035,24.3810276 168.602801,24.2783527 L169.678228,27.433867 C168.787681,27.7665952 167.749453,27.9337313 166.562801,27.9337313 Z" id="Path" fill="#FF8900"></path>
                    </g>
                    <path d="M48.8811379,0.16190372 C49.2709847,3.79450853 49.2531291,14.0577462 67.7689934,28.8483265 C72.5380899,32.6578753 78.0109497,36.7285356 83.102459,41.0757909 C75.7559629,49.9294597 70.871343,60.2550631 70.2770754,69.7396424 L70.2770754,69.7396424 L70.2315755,69.7117532 C42.0588184,52.4218512 46.2771991,15.215733 46.2771991,15.215733 C31.3975492,58.4472429 71.9445952,86.6249234 71.9445952,86.6249234 C71.9445952,86.6249234 71.3418711,90.5858841 70.579369,94.9840397 C64.5538847,96.4848357 57.7233738,96.9916124 50.3691028,95.5028228 C42.0547265,93.8194958 35.2908096,90.8384516 31.3975492,87.3969147 C1.26625821,60.7632166 33.3036324,9.3451256 48.8811379,0.16190372 Z M80.9279695,74.6444932 L80.9063376,74.6502126 C80.8913174,74.6541662 80.8812341,74.6567801 80.8761809,74.6580834 L80.8863638,74.6554435 C80.8956554,74.6530244 80.9095515,74.6493829 80.9279695,74.6444932 Z M81.7300243,74.4160733 L81.6897903,74.4280508 C81.676835,74.4319022 81.6640258,74.4357029 81.6513633,74.4394534 C81.6754552,74.4323248 81.7024241,74.424309 81.7300243,74.4160733 Z M79.5522041,74.1931591 C79.6442121,74.2268929 79.7364701,74.2604493 79.8289787,74.2938273 L79.6917463,74.2441149 L79.6917463,74.2441149 Z M82.3022856,74.2410846 L82.2892755,74.2451632 C82.3054088,74.2401236 82.3216702,74.235035 82.3380592,74.2298973 L82.2920555,74.2442823 C82.2954598,74.2432186 82.2988699,74.2421527 82.3022856,74.2410846 Z M83.6020334,73.8169581 L83.4712432,73.8611705 C83.5391518,73.8383143 83.6082552,73.8149264 83.6785372,73.7910017 L83.4724311,73.8607403 C83.5151603,73.8463571 83.5583625,73.8317635 83.6020334,73.8169581 Z M78.4221956,73.7651105 C78.4643629,73.7816046 78.5065845,73.7980606 78.5488605,73.8144786 L78.5378127,73.8101868 L78.5378127,73.8101868 Z M84.3899948,73.5442358 L84.2617928,73.5893987 C84.3293018,73.5657164 84.3976968,73.5416045 84.4669665,73.5170595 L84.2638179,73.5886436 C84.3055395,73.5740053 84.3475994,73.559203 84.3899948,73.5442358 Z M77.3200063,73.3202616 L77.5091825,73.3985906 C77.4460909,73.3726058 77.3831244,73.3465344 77.3202828,73.3203767 L77.3200063,73.3202616 Z M85.9734248,72.9643299 L85.9219512,72.9838997 C85.997098,72.9554766 86.0729495,72.9266525 86.1494964,72.8974245 L85.9229287,72.9834513 C85.9397255,72.9770976 85.9565576,72.9707237 85.9734248,72.9643299 Z M76.2715377,72.8708074 L76.3276437,72.8955284 C76.3088984,72.8872819 76.2901646,72.8790274 76.2714423,72.8707652 L76.2715377,72.8708074 Z M86.7987056,72.6462401 L86.7268265,72.6742768 C86.616142,72.7175393 86.5067479,72.7600131 86.3986688,72.8017059 C86.5298389,72.7511984 86.6633207,72.6993046 86.7987056,72.6462401 Z M75.0933902,72.3335963 L75.3796595,72.4673553 C75.2837151,72.4228774 75.1880809,72.3781909 75.0927558,72.3332975 L75.0933902,72.3335963 Z M87.5223797,72.3584573 L87.4354822,72.3935379 C87.5214752,72.358993 87.6081494,72.3240056 87.6954947,72.2885723 L87.4369721,72.3928264 C87.4653672,72.3814184 87.4938365,72.369962 87.5223797,72.3584573 Z M73.0195668,71.2994102 L73.2709334,71.4310817 C73.1865976,71.3872062 73.1025199,71.3431628 73.0186994,71.2989527 L73.0195668,71.2994102 Z M90.4544557,71.1120498 L90.2539276,71.2015594 C90.3496607,71.1590576 90.4459375,71.1161101 90.5427488,71.0727138 L90.254791,71.2009967 C90.3210861,71.1715618 90.3876421,71.1419132 90.4544557,71.1120498 Z M91.9250627,70.4388543 L91.7369276,70.5265856 C91.6776022,70.5542355 91.6184486,70.5817265 91.5594686,70.6090591 C91.6798443,70.5534885 91.8020931,70.49651 91.9250627,70.4388543 Z M71.0890087,70.2258806 L71.297369,70.3472378 C71.2279391,70.3070276 71.1586977,70.2666991 71.0896443,70.2262529 L71.0890087,70.2258806 Z M92.7357445,70.0535978 C92.8484028,69.9994043 92.9616091,69.9446607 93.0753517,69.8893633 Z M93.4181769,69.7218064 L93.380293,69.740658 C93.3992112,69.7313739 93.4181437,69.7220745 93.4370904,69.7127601 L93.381043,69.7400416 C93.3934148,69.7339697 93.4057928,69.7278913 93.4181769,69.7218064 Z M95.5387939,68.6454694 L95.4090164,68.7136169 C95.7895179,68.5150367 96.174606,68.3106801 96.563913,68.1004318 C96.2187022,68.2865683 95.8769621,68.4682931 95.5387939,68.6454694 Z M97.7576654,67.4440123 L97.609017,67.527277 C97.7171938,67.4670401 97.8256603,67.406357 97.9344091,67.3452255 L97.6103883,67.5262023 C97.6594213,67.4988974 97.7085139,67.4715008 97.7576654,67.4440123 Z M98.1359713,67.2312732 C98.2624506,67.1597566 98.3893034,67.0876352 98.516518,67.0149053 Z M99.2840544,66.571196 L98.9500695,66.765798 C99.1289981,66.6622135 99.3086074,66.5574325 99.4888655,66.4514448 L98.9500924,66.7654666 C99.0611532,66.7011715 99.1724764,66.6364154 99.2840544,66.571196 Z M84.9466178,73.3451516 L84.8165431,73.3920973 C84.743689,73.4183448 84.6717084,73.4441444 84.6006131,73.4694996 L84.9466178,73.3451516 L84.9466178,73.3451516 Z M85.382073,73.1857705 L85.2640589,73.2292072 C85.1877566,73.2572612 85.1123048,73.28486 85.037715,73.3120071 L84.9466178,73.3451516 C85.0885964,73.2936953 85.2337757,73.2405769 85.382073,73.1857705 Z M85.495505,73.1436756 C85.5734963,73.1147073 85.6523264,73.0852802 85.7319836,73.0553904 Z M87.8300618,72.2338455 L87.7966054,72.2473561 C87.7633116,72.2609142 87.7301136,72.274408 87.697012,72.2878378 L87.8300618,72.2338455 L87.8300618,72.2338455 Z M88.0752354,72.1333045 L87.8300618,72.2338455 L87.8300618,72.2338455 L88.3581999,72.0162806 C88.2631637,72.0557864 88.1688383,72.0947932 88.0752354,72.1333045 Z M88.3703337,72.0113704 C88.7358151,71.8593846 89.1117867,71.7000263 89.4975877,71.5330886 L89.2324027,71.647156 C89.0340102,71.7322216 88.8383214,71.8152474 88.6454291,71.8962624 Z M89.5320074,71.5180239 L89.4975877,71.5330886 C89.5548653,71.5083043 89.6123596,71.483353 89.6700684,71.4582339 C89.6243885,71.4779531 89.578128,71.4980426 89.5320074,71.5180239 Z M92.0664626,70.3721871 L91.9250627,70.4388543 C92.1049452,70.3545143 92.2863702,70.2687252 92.4692867,70.1814711 C92.3348065,70.2453957 92.2002155,70.3091896 92.0664626,70.3721871 Z M93.8814071,69.4928288 C94.284375,69.2920029 94.6934654,69.0844142 95.1081927,68.8699104 C94.5409961,69.1630097 93.9836331,69.4438033 93.4380903,69.712019 Z" id="Combined-Shape" fill="#00A00C" fill-rule="nonzero"></path>
                </g>
                <path d="M140.018993,0 C158.666667,15.68 166.694444,68.6 136.671072,93.4109409 C125.289246,102.81674 103.993172,106.03211 89.3066036,102.964344 C89.0610061,100.932393 88.7998125,98.8754996 88.6842013,96.4989059 C140.184158,67.7661637 138.90302,21.2297593 138.90302,21.2297593 C127.743282,71.0231947 80.8723851,82.9890591 80.8723851,82.9890591 C76.9113518,81.644616 73.3960796,79.979069 70.2770754,78.0696424 C71.4573687,59.2320254 89.5618848,37.076807 110.259694,29.721663 C133.417265,21.4922363 138.065295,3.98617681 140.018993,0 Z" id="Combined-Shape" fill="#FF8900" fill-rule="nonzero"></path>
            </g>
        </g>
    </g>
</svg>