<?xml version="1.0" encoding="UTF-8"?>
<svg width="513px" height="94px" viewBox="0 0 513 94" version="1.1" xmlns="http://www.w3.org/2000/svg" xmlns:xlink="http://www.w3.org/1999/xlink">
    <!-- Generator: Sketch 57.1 (83088) - https://sketch.com -->
    <title>Group 3</title>
    <desc>Created with Sketch.</desc>
    <g id="Symbols" stroke="none" stroke-width="1" fill="none" fill-rule="evenodd">
        <g id="yukmarket-logo3" transform="translate(-23.000000, -24.000000)" fill-rule="nonzero">
            <g id="Group-3" transform="translate(23.000000, 24.000000)">
                <g id="yukmarket-logo3" transform="translate(153.000000, 10.000000)">
                    <g id="Group">
                        <polygon id="Path" fill="#00A00C" points="39.1612254 17.8999562 15.0530416 73.340744 7.59308534 73.340744 16.5450328 53.94407 0.682188184 17.8999562 8.53522976 17.8999562 20.0000875 45.5419694 20.1576368 45.5419694 31.3089716 17.8999562 39.1612254 17.8999562"></polygon>
                        <path d="M77.6394748,56.3789934 L70.7293654,56.3789934 L70.7293654,51.0396499 L70.4158425,51.0396499 C69.3161488,52.9239387 67.6280088,54.4947046 65.3506346,55.750372 C63.0732604,57.0076149 60.7045077,57.6354486 58.2443764,57.6354486 C53.5328665,57.6354486 49.9068709,56.2884026 47.367965,53.5911597 C44.8282713,50.8954923 43.5592123,47.060744 43.5592123,42.0869147 L43.5592123,17.8999562 L50.7836324,17.8999562 L50.7836324,41.6158425 C50.9411816,47.8981182 54.1079212,51.0396499 60.2854267,51.0396499 C63.1638512,51.0396499 65.572779,49.8745733 67.5098468,47.5444201 C69.4461269,45.2158425 70.4150547,42.4280088 70.4150547,39.180919 L70.4150547,17.8999562 L77.6394748,17.8999562 L77.6394748,56.3789934 L77.6394748,56.3789934 Z" id="Path" fill="#00A00C"></path>
                        <polygon id="Path" fill="#00A00C" points="120.280175 56.3789934 111.563764 56.3789934 99.5490591 38.2387746 93.659081 44.0499781 93.659081 56.3789934 86.4346608 56.3789934 86.4346608 0.152035011 93.659081 0.152035011 93.659081 34.7837199 110.307309 17.8999562 119.573567 17.8999562 119.573567 18.214267 104.574092 33.1341794 120.280175 56.0646827"></polygon>
                        <path d="M131.587484,56.3789934 L124.362276,56.3789934 L124.362276,17.8999562 L131.273173,17.8999562 L131.273173,23.2400875 L131.586696,23.2400875 C132.685602,21.3550109 134.37453,19.7842451 136.651904,18.5285777 C138.929278,17.2729103 141.192473,16.6435011 143.444639,16.6435011 C146.271072,16.6435011 148.757199,17.2989059 150.905383,18.6065646 C153.050416,19.9157987 154.621182,21.7221007 155.616105,24.0254705 C158.80884,19.1044201 163.233611,16.6435011 168.888053,16.6435011 C173.337243,16.6435011 176.76709,18.0055142 179.17523,20.7271772 C181.58337,23.4504158 182.787834,27.3237637 182.787834,32.3495842 L182.787834,56.3797812 L175.562626,56.3797812 L175.562626,33.4492779 C175.562626,29.8374617 174.907221,27.2331729 173.599562,25.6356236 C172.290328,24.0396499 170.091729,23.2408753 167.003764,23.2408753 C164.228534,23.2408753 161.899168,24.4185558 160.014092,26.7747046 C158.129015,29.1300656 157.187659,31.9060832 157.187659,35.0980306 L157.187659,56.3797812 L149.962451,56.3797812 L149.962451,33.4492779 C149.962451,29.8374617 149.307046,27.2331729 147.999387,25.6356236 C146.690153,24.0396499 144.491554,23.2408753 141.403589,23.2408753 C138.628359,23.2408753 136.298993,24.4185558 134.413917,26.7747046 C132.52884,29.1300656 131.587484,31.9060832 131.587484,35.0980306 L131.587484,56.3789934 Z" id="Path" fill="#FF8900"></path>
                        <path d="M205.483589,16.6435011 C210.822932,16.6435011 215.036586,18.0708972 218.126915,20.9241138 C221.21488,23.7781182 222.75965,27.6908534 222.75965,32.663895 L222.75965,56.3789934 L215.84954,56.3789934 L215.84954,51.0396499 L215.536018,51.0396499 C212.552035,55.436849 208.572341,57.6354486 203.600088,57.6354486 C199.358862,57.6354486 195.811641,56.3789934 192.959212,53.8660832 C190.105208,51.3539606 188.6786,48.2124289 188.6786,44.4430635 C188.6786,40.4649453 190.183195,37.2966302 193.193961,34.9412691 C196.203151,32.5859081 200.222232,31.4074398 205.248053,31.4074398 C209.540481,31.4074398 213.074311,32.1928228 215.84954,33.7635886 L215.84954,32.1140481 C215.84954,29.6011379 214.854617,27.468709 212.865558,25.7136105 C210.875711,23.9600875 208.547133,23.083326 205.876674,23.083326 C201.844989,23.083326 198.652254,24.7848578 196.296105,28.1871335 L189.935842,24.1822319 C193.441313,19.1564114 198.623895,16.6435011 205.483589,16.6435011 Z M196.138556,44.5998249 C196.138556,46.4849015 196.936543,48.0548796 198.533304,49.3113348 C200.130066,50.5677899 202.000963,51.1964114 204.148359,51.1964114 C207.184333,51.1964114 209.893392,50.0707221 212.276324,47.8193435 C214.656893,45.5695405 215.848753,42.9250766 215.848753,39.8883151 C213.597374,38.1087965 210.455842,37.2178556 206.425733,37.2178556 C203.492166,37.2178556 201.046214,37.9244639 199.083151,39.3376805 C197.120088,40.7516849 196.138556,42.5067834 196.138556,44.5998249 Z" id="Shape" fill="#FF8900"></path>
                        <path d="M238.150635,56.3789934 L230.926214,56.3789934 L230.926214,17.8999562 L237.836324,17.8999562 L237.836324,24.1822319 L238.149847,24.1822319 C238.882451,22.1403939 240.387834,20.4002626 242.665208,18.9594748 C244.942582,17.5202626 247.179781,16.8002626 249.378381,16.8002626 C251.47221,16.8002626 253.252516,17.1137856 254.718512,17.742407 L252.519912,24.731291 C251.628972,24.3657768 250.214967,24.1822319 248.278687,24.1822319 C245.556236,24.1822319 243.186696,25.2819256 241.172429,27.4805252 C239.155799,29.6799125 238.149059,32.2456018 238.149059,35.1768053 L238.149059,56.3789934 L238.150635,56.3789934 Z" id="Path" fill="#FF8900"></path>
                        <polygon id="Path" fill="#FF8900" points="293.668621 56.3789934 284.95221 56.3789934 272.937505 38.2387746 267.047527 44.0499781 267.047527 56.3789934 259.823107 56.3789934 259.823107 0.152035011 267.047527 0.152035011 267.047527 34.7837199 283.695755 17.8999562 292.962801 17.8999562 292.962801 18.214267 277.963326 33.1341794 293.669409 56.0646827 293.669409 56.3789934"></polygon>
                        <path d="M313.849891,57.6354486 C308.195449,57.6354486 303.53593,55.6991685 299.872123,51.8242451 C296.207527,47.9508972 294.374442,43.0558425 294.374442,37.139081 C294.374442,31.276674 296.153961,26.3942232 299.714573,22.4933042 C303.274398,18.5939606 307.829147,16.6427133 313.378818,16.6427133 C319.084464,16.6427133 323.626608,18.4884026 327.003676,22.1789934 C330.379956,25.870372 332.068884,31.0403501 332.068884,37.68814 L331.990109,38.473523 L301.756411,38.473523 C301.860394,42.2421007 303.117637,45.2796499 305.525777,47.5822319 C307.933129,49.8863895 310.813129,51.0380744 314.164201,51.0380744 C318.770153,51.0380744 322.382757,48.7347046 325.001225,44.1271772 L331.440263,47.268709 C329.713523,50.5150109 327.317987,53.0539168 324.25523,54.8854267 C321.19326,56.7192998 317.724026,57.6354486 313.849891,57.6354486 Z M302.306258,32.5063457 L324.373392,32.5063457 C324.163063,29.836674 323.077549,27.6254705 321.114486,25.8711597 C319.151422,24.116849 316.52035,23.2400875 313.222057,23.2400875 C310.498818,23.2400875 308.156061,24.0774617 306.192998,25.7529978 C304.229934,27.4285339 302.93488,29.6799125 302.306258,32.5063457 Z" id="Shape" fill="#FF8900"></path>
                        <path d="M352.721225,57.0076149 C349.580481,57.0076149 346.975405,56.0394748 344.907571,54.102407 C342.83895,52.1661269 341.778643,49.468884 341.72744,46.0130416 L341.72744,24.4965427 L334.974092,24.4965427 L334.974092,17.8999562 L341.72744,17.8999562 L341.72744,6.12078775 L348.95186,6.12078775 L348.95186,17.8999562 L358.375667,17.8999562 L358.375667,24.4965427 L348.95186,24.4965427 L348.95186,43.6576805 C348.95186,46.2233698 349.448928,47.9642888 350.444639,48.8796499 C351.438775,49.7965864 352.564464,50.254267 353.820919,50.254267 C354.395974,50.254267 354.959212,50.188884 355.509847,50.0581182 C356.060481,49.9273523 356.570153,49.7571991 357.041225,49.5476586 L359.3186,55.9874836 C357.432735,56.6665208 355.234136,57.0076149 352.721225,57.0076149 Z" id="Path" fill="#FF8900"></path>
                    </g>
                </g>
                <g id="Group-2">
                    <path d="M28.8039201,8 C29.1674197,11.2462633 29.1507709,20.4179662 46.4152657,33.6355115 C50.8619781,37.0398457 55.9648702,40.6775139 60.7122123,44.5623519 C53.8624725,52.4747765 49.308121,61.7020504 48.7539403,70.1779363 C22.438538,54.7368964 26.3759651,21.4527967 26.3759651,21.4527967 C12.5019361,60.0864694 50.308665,85.2673454 50.308665,85.2673454 C50.308665,85.2673454 49.7466928,88.8069322 49.0357391,92.7372534 C43.4172467,94.0786323 37.0484585,94.5314764 30.191323,93.201046 C22.4388625,91.6967474 16.1320758,89.0327487 12.5019361,85.9572324 C-15.5929725,62.1561304 14.2791992,16.206551 28.8039201,8 Z M58.6330824,74.5740967 L58.6461164,74.5708656 C58.6493082,74.5700691 58.6530829,74.5691244 58.6574364,74.5680303 C58.6420229,74.5719091 58.6330824,74.5740967 58.6330824,74.5740967 Z M58.8305388,74.5232434 L58.8133947,74.5277658 C58.8213183,74.5256795 58.829497,74.523521 58.8379297,74.52129 L58.8901153,74.5074149 C58.8689856,74.5130588 58.8491223,74.5183336 58.8305388,74.5232434 Z M59.0319797,74.4690901 L59.0133796,74.4741631 C59.173942,74.4304443 59.3835856,74.3718617 59.6389363,74.2974026 L59.7584172,74.2623712 C59.4586612,74.3506951 59.2149623,74.4191348 59.0319797,74.4690901 Z M57.4366075,74.1698513 C57.4948271,74.1902657 57.553154,74.2106071 57.6115882,74.2308753 L57.5322355,74.2032834 L57.5322355,74.2032834 Z M61.3231699,73.774302 L61.1827149,73.8201086 C61.029827,73.8697983 60.8830897,73.9168242 60.7427038,73.9612465 C60.9250715,73.9035651 61.1189415,73.8412144 61.3231699,73.774302 Z M62.192368,73.4826181 L62.0839967,73.5197547 L62.0839967,73.5197547 C62.1197435,73.5075118 62.1559343,73.4951239 62.192368,73.4826181 Z M55.2674426,73.3563701 L55.5375176,73.4635882 C55.4472616,73.4280476 55.3572798,73.392325 55.2675713,73.3564216 L55.2674426,73.3563701 Z M64.3634581,72.6980872 L64.2071459,72.7571992 C64.493279,72.6494928 64.7884376,72.5364415 65.0921426,72.4179016 C64.8435872,72.514829 64.6005229,72.6082605 64.3634581,72.6980872 Z M53.2872758,72.5151696 L53.4681146,72.5961545 C53.4076641,72.5692271 53.3473459,72.5422146 53.2871597,72.5151173 L53.2872758,72.5151696 Z M52.267096,72.0418119 C52.3420569,72.0776444 52.4172304,72.1133427 52.4926172,72.1489059 C52.4604176,72.1337161 52.4281332,72.1184429 52.3958878,72.1031449 Z M51.3819476,71.607555 L51.5055247,71.6695392 C51.4644842,71.6490281 51.4235094,71.6284762 51.3826001,71.6078834 L51.3819476,71.607555 Z M67.8766788,71.2712089 L67.811135,71.2996995 C68.440157,71.0279095 69.0928221,70.7368265 69.7662891,70.4255976 C69.1167717,70.7256136 68.4857428,71.007423 67.8766788,71.2712089 Z M50.460898,71.1312278 L50.524569,71.1649846 C50.5034315,71.1537988 50.4823121,71.1426019 50.4612107,71.1313939 L50.460898,71.1312278 Z M49.5113545,70.6126578 L49.7289364,70.734031 C49.6561698,70.6936965 49.5836251,70.6532285 49.5113015,70.612628 L49.5113545,70.6126578 Z M70.7629073,69.9573148 L70.5484576,70.059218 C70.4832177,70.0901611 70.4181546,70.1209207 70.3532708,70.1514975 C70.4885802,70.0879012 70.6253613,70.023013 70.7629073,69.9573148 Z M71.6080517,69.5478463 L71.5426426,69.5800997 C71.5977293,69.5531113 71.6529275,69.5259962 71.7082358,69.498754 L71.5429226,69.5797888 C71.564615,69.569161 71.5863248,69.5585135 71.6080517,69.5478463 Z M72.6816585,69.0117271 L72.3301599,69.1891663 C72.2566123,69.2261227 72.1832454,69.262858 72.1100623,69.2993732 C72.2992553,69.2051504 72.4898681,69.1091836 72.6816585,69.0117271 Z M76.6909455,66.8408923 L76.8879802,66.7269707 C76.2133992,67.1177481 75.5475162,67.4913256 74.8921771,67.8482579 C75.483366,67.5264228 76.0835419,67.1906438 76.6909455,66.8408923 Z M61.3727102,73.7580188 L61.3231699,73.774302 L61.3231699,73.774302 L61.5687546,73.6932494 C61.5024073,73.7152885 61.4370546,73.736877 61.3727102,73.7580188 Z M62.6368619,73.3283498 L62.4319636,73.3999283 C62.526616,73.3670505 62.6227939,73.3334134 62.7204693,73.2990085 C62.6935448,73.3084426 62.6651391,73.3184289 62.6368619,73.3283498 Z M65.6242923,72.2079998 L66.1127598,72.0113677 C65.7937608,72.1409132 65.4826531,72.2649085 65.1799034,72.3834939 L65.120534,72.4068139 C65.2859568,72.3421742 65.4539019,72.2759106 65.6242923,72.2079998 Z M66.9387141,71.670716 L66.6753624,71.7805851 C66.8404021,71.7121412 67.0073709,71.6422715 67.1762095,71.5709583 C67.0964629,71.6045153 67.0173781,71.6377748 66.9387141,71.670716 Z M67.2472214,71.540798 C67.3507575,71.4969529 67.4549894,71.4525673 67.5599035,71.4076372 Z M69.7672078,70.4250123 C69.7976709,70.4109337 69.8281765,70.3968138 69.8587244,70.3826527 Z M70.8984045,69.8922812 L70.7629073,69.9573148 C70.8726089,69.9049165 70.9827971,69.8520029 71.0934607,69.7985708 C71.0287213,69.8296588 70.9634787,69.8610602 70.8984045,69.8922812 Z M73.3401136,68.6736227 L73.0640772,68.8160455 C72.9408098,68.8794466 72.8180073,68.9422378 72.6956832,69.0044233 L73.3401136,68.6736227 L73.3401136,68.6736227 Z M73.4352605,68.6240085 L73.3401136,68.6736227 C73.5464929,68.566544 73.7541322,68.4577662 73.9629688,68.3472705 C73.7862492,68.4406014 73.6103065,68.5329149 73.4352605,68.6240085 Z" id="Combined-Shape" fill="#00A00C"></path>
                    <path d="M113.492723,0 C130.766758,14.0095384 138.203188,61.2917303 110.391419,83.4594489 C99.8480249,91.863193 80.1207204,94.7360187 66.5160068,91.9950967 C66.2884964,90.18004 66.0464986,88.3420936 65.939391,86.218439 C113.645721,60.5467263 112.458955,18.9680566 112.458955,18.9680566 C102.121274,63.4567711 58.7030144,74.1478575 58.7030144,74.1478575 C55.0335057,72.9465603 51.7769797,71.4583279 48.8875797,69.7521718 C49.9824671,52.9206668 66.7529556,33.1266634 85.9255741,26.5552792 C107.377296,19.2025707 111.68294,3.56151128 113.492723,0 Z" id="Combined-Shape" fill="#FF8900"></path>
                </g>
            </g>
        </g>
    </g>
</svg>